<mxfile host="app.diagrams.net" modified="2023-09-04T16:37:40.757Z" agent="Mozilla/5.0 (Macintosh; Intel Mac OS X 10.15; rv:109.0) Gecko/20100101 Firefox/117.0" etag="ejB96ElYMIpnxCdidZVb" version="21.7.2" type="github">
  <diagram name="Page-1" id="CPWN5bza4g_s-4rd5Nbc">
    <mxGraphModel dx="1498" dy="1018" grid="0" gridSize="9" guides="1" tooltips="1" connect="1" arrows="1" fold="1" page="0" pageScale="1" pageWidth="850" pageHeight="1100" background="#000000" math="0" shadow="0">
      <root>
        <mxCell id="0" />
        <mxCell id="1" parent="0" />
        <mxCell id="bAQgO3kXSDWkhejjoUh2-17" value="&amp;lt;" style="rounded=0;whiteSpace=wrap;html=1;fontColor=#1A1A1A;fillColor=#080808;strokeColor=#FFFFFF;" parent="1" vertex="1">
          <mxGeometry x="44" y="509" width="610.25" height="81" as="geometry" />
        </mxCell>
        <mxCell id="1VQwGabYHdRYnuA2fcr5-16" value="QUEUE" style="edgeStyle=orthogonalEdgeStyle;rounded=0;orthogonalLoop=1;jettySize=auto;html=1;exitX=0.5;exitY=1;exitDx=0;exitDy=0;entryX=0.5;entryY=0;entryDx=0;entryDy=0;labelBackgroundColor=none;fontColor=#FFFFFF;strokeColor=#23445D;" parent="1" source="xJE35Gng4KRntIkckdr7-1" target="xJE35Gng4KRntIkckdr7-5" edge="1">
          <mxGeometry relative="1" as="geometry" />
        </mxCell>
        <mxCell id="1VQwGabYHdRYnuA2fcr5-43" style="edgeStyle=orthogonalEdgeStyle;rounded=0;orthogonalLoop=1;jettySize=auto;html=1;exitX=0;exitY=0.25;exitDx=0;exitDy=0;entryX=0.5;entryY=1;entryDx=0;entryDy=0;labelBackgroundColor=none;fontColor=#FFFFFF;strokeColor=#23445D;" parent="1" source="xJE35Gng4KRntIkckdr7-1" target="1VQwGabYHdRYnuA2fcr5-27" edge="1">
          <mxGeometry relative="1" as="geometry" />
        </mxCell>
        <mxCell id="HniZu6v92CHcr_uCVzVA-16" style="edgeStyle=orthogonalEdgeStyle;rounded=0;orthogonalLoop=1;jettySize=auto;html=1;exitX=0;exitY=0.75;exitDx=0;exitDy=0;entryX=0.5;entryY=0;entryDx=0;entryDy=0;labelBackgroundColor=none;fontColor=#FFFFFF;strokeColor=#23445D;" parent="1" source="xJE35Gng4KRntIkckdr7-1" target="1VQwGabYHdRYnuA2fcr5-17" edge="1">
          <mxGeometry relative="1" as="geometry" />
        </mxCell>
        <mxCell id="xJE35Gng4KRntIkckdr7-1" value="clock_task" style="rounded=0;whiteSpace=wrap;html=1;labelBackgroundColor=none;fontColor=#FFFFFF;fillColor=#000033;strokeColor=#FFFFFF;" parent="1" vertex="1">
          <mxGeometry x="252" y="150" width="105" height="61" as="geometry" />
        </mxCell>
        <mxCell id="xJE35Gng4KRntIkckdr7-19" value="QUEUE" style="edgeStyle=orthogonalEdgeStyle;rounded=0;orthogonalLoop=1;jettySize=auto;html=1;exitX=1;exitY=0.5;exitDx=0;exitDy=0;entryX=0;entryY=0.5;entryDx=0;entryDy=0;labelBackgroundColor=none;fontColor=#FFFFFF;strokeColor=#23445D;" parent="1" source="1VQwGabYHdRYnuA2fcr5-2" target="xJE35Gng4KRntIkckdr7-6" edge="1">
          <mxGeometry relative="1" as="geometry" />
        </mxCell>
        <mxCell id="1VQwGabYHdRYnuA2fcr5-3" value="NOTIFY" style="edgeStyle=orthogonalEdgeStyle;rounded=0;orthogonalLoop=1;jettySize=auto;html=1;exitX=0.5;exitY=1;exitDx=0;exitDy=0;labelBackgroundColor=none;fontColor=#FFFFFF;strokeColor=#23445D;" parent="1" source="xJE35Gng4KRntIkckdr7-2" target="1VQwGabYHdRYnuA2fcr5-2" edge="1">
          <mxGeometry relative="1" as="geometry" />
        </mxCell>
        <mxCell id="xJE35Gng4KRntIkckdr7-2" value="mode_switch_isr_handler" style="shape=parallelogram;perimeter=parallelogramPerimeter;whiteSpace=wrap;html=1;fixedSize=1;labelBackgroundColor=none;fontColor=#FFFFFF;fillColor=#332828;strokeColor=#FFFFFF;rounded=0;" parent="1" vertex="1">
          <mxGeometry x="153" y="-43" width="179.5" height="39" as="geometry" />
        </mxCell>
        <mxCell id="xJE35Gng4KRntIkckdr7-17" value="QUEUE" style="edgeStyle=orthogonalEdgeStyle;rounded=0;orthogonalLoop=1;jettySize=auto;html=1;exitX=0.5;exitY=0;exitDx=0;exitDy=0;entryX=1;entryY=0.5;entryDx=0;entryDy=0;labelBackgroundColor=none;fontColor=#FFFFFF;strokeColor=#23445D;" parent="1" source="xJE35Gng4KRntIkckdr7-3" target="xJE35Gng4KRntIkckdr7-1" edge="1">
          <mxGeometry relative="1" as="geometry" />
        </mxCell>
        <mxCell id="xJE35Gng4KRntIkckdr7-3" value="tempo_task" style="rounded=0;whiteSpace=wrap;html=1;labelBackgroundColor=none;fontColor=#FFFFFF;fillColor=#182E3E;strokeColor=#FFFFFF;" parent="1" vertex="1">
          <mxGeometry x="680" y="277.5" width="89" height="54" as="geometry" />
        </mxCell>
        <mxCell id="xJE35Gng4KRntIkckdr7-16" value="NOTIFY" style="edgeStyle=orthogonalEdgeStyle;rounded=0;orthogonalLoop=1;jettySize=auto;html=1;exitX=1;exitY=0.5;exitDx=0;exitDy=0;entryX=0;entryY=0.5;entryDx=0;entryDy=0;labelBackgroundColor=none;fontColor=#FFFFFF;strokeColor=#23445D;" parent="1" source="xJE35Gng4KRntIkckdr7-4" target="xJE35Gng4KRntIkckdr7-3" edge="1">
          <mxGeometry relative="1" as="geometry" />
        </mxCell>
        <mxCell id="xJE35Gng4KRntIkckdr7-18" value="QUEUE" style="edgeStyle=orthogonalEdgeStyle;rounded=0;orthogonalLoop=1;jettySize=auto;html=1;exitX=0.5;exitY=0;exitDx=0;exitDy=0;entryX=1;entryY=0.75;entryDx=0;entryDy=0;labelBackgroundColor=none;fontColor=#FFFFFF;strokeColor=#23445D;" parent="1" source="xJE35Gng4KRntIkckdr7-4" target="xJE35Gng4KRntIkckdr7-1" edge="1">
          <mxGeometry x="0.2512" relative="1" as="geometry">
            <mxPoint as="offset" />
          </mxGeometry>
        </mxCell>
        <mxCell id="xJE35Gng4KRntIkckdr7-4" value="sync_task" style="rounded=0;whiteSpace=wrap;html=1;labelBackgroundColor=none;fillColor=#663300;strokeColor=#FFFFFF;fontColor=#FFFFFF;" parent="1" vertex="1">
          <mxGeometry x="506" y="279" width="91" height="51" as="geometry" />
        </mxCell>
        <mxCell id="xJE35Gng4KRntIkckdr7-31" value="NOTIFY" style="edgeStyle=orthogonalEdgeStyle;rounded=0;orthogonalLoop=1;jettySize=auto;html=1;exitX=1;exitY=0.5;exitDx=0;exitDy=0;entryX=0;entryY=0.5;entryDx=0;entryDy=0;labelBackgroundColor=none;fontColor=#FFFFFF;strokeColor=#23445D;" parent="1" source="xJE35Gng4KRntIkckdr7-5" target="xJE35Gng4KRntIkckdr7-4" edge="1">
          <mxGeometry relative="1" as="geometry" />
        </mxCell>
        <mxCell id="1VQwGabYHdRYnuA2fcr5-34" style="edgeStyle=orthogonalEdgeStyle;rounded=0;orthogonalLoop=1;jettySize=auto;html=1;exitX=0;exitY=0.5;exitDx=0;exitDy=0;entryX=1;entryY=0.5;entryDx=0;entryDy=0;labelBackgroundColor=none;fontColor=#FFFFFF;strokeColor=#23445D;" parent="1" source="xJE35Gng4KRntIkckdr7-5" target="1VQwGabYHdRYnuA2fcr5-20" edge="1">
          <mxGeometry relative="1" as="geometry" />
        </mxCell>
        <mxCell id="1VQwGabYHdRYnuA2fcr5-40" style="edgeStyle=orthogonalEdgeStyle;rounded=0;orthogonalLoop=1;jettySize=auto;html=1;exitX=0.25;exitY=1;exitDx=0;exitDy=0;entryX=1;entryY=0.5;entryDx=0;entryDy=0;labelBackgroundColor=none;fontColor=#FFFFFF;strokeColor=#23445D;" parent="1" source="xJE35Gng4KRntIkckdr7-5" target="1VQwGabYHdRYnuA2fcr5-19" edge="1">
          <mxGeometry relative="1" as="geometry" />
        </mxCell>
        <mxCell id="xJE35Gng4KRntIkckdr7-5" value="onset_adc_task" style="rounded=0;whiteSpace=wrap;html=1;labelBackgroundColor=none;fontColor=#FFFFFF;fillColor=#003300;strokeColor=#FFFFFF;" parent="1" vertex="1">
          <mxGeometry x="299" y="275" width="120" height="60" as="geometry" />
        </mxCell>
        <mxCell id="1VQwGabYHdRYnuA2fcr5-25" style="edgeStyle=orthogonalEdgeStyle;rounded=0;orthogonalLoop=1;jettySize=auto;html=1;exitX=1;exitY=0.5;exitDx=0;exitDy=0;entryX=0;entryY=0.5;entryDx=0;entryDy=0;labelBackgroundColor=none;fontColor=#FFFFFF;strokeColor=#23445D;" parent="1" source="xJE35Gng4KRntIkckdr7-6" target="1VQwGabYHdRYnuA2fcr5-24" edge="1">
          <mxGeometry relative="1" as="geometry" />
        </mxCell>
        <mxCell id="moEbLZlEv98gQyUkoGMg-2" style="edgeStyle=orthogonalEdgeStyle;rounded=0;orthogonalLoop=1;jettySize=auto;html=1;exitX=1;exitY=0.25;exitDx=0;exitDy=0;entryX=0;entryY=0.5;entryDx=0;entryDy=0;labelBackgroundColor=none;fontColor=#FFFFFF;strokeColor=#23445D;" parent="1" source="xJE35Gng4KRntIkckdr7-6" target="moEbLZlEv98gQyUkoGMg-1" edge="1">
          <mxGeometry relative="1" as="geometry">
            <Array as="points">
              <mxPoint x="555" y="52" />
              <mxPoint x="555" y="-55" />
            </Array>
          </mxGeometry>
        </mxCell>
        <mxCell id="xJE35Gng4KRntIkckdr7-6" value="hid_task" style="rounded=0;whiteSpace=wrap;html=1;labelBackgroundColor=none;fontColor=#FFFFFF;fillColor=#333300;strokeColor=#FFFFFF;" parent="1" vertex="1">
          <mxGeometry x="408" y="36" width="79" height="53" as="geometry" />
        </mxCell>
        <mxCell id="88S4lRFHgeVLfDE4VrQQ-7" style="edgeStyle=orthogonalEdgeStyle;rounded=0;orthogonalLoop=1;jettySize=auto;html=1;exitX=0.5;exitY=1;exitDx=0;exitDy=0;entryX=0.556;entryY=0.073;entryDx=0;entryDy=0;entryPerimeter=0;strokeColor=#23445D;labelBackgroundColor=none;fontColor=#FFFFFF;" edge="1" parent="1" source="xJE35Gng4KRntIkckdr7-7" target="xJE35Gng4KRntIkckdr7-10">
          <mxGeometry relative="1" as="geometry" />
        </mxCell>
        <mxCell id="xJE35Gng4KRntIkckdr7-7" value="&lt;div&gt;Pulse Counter&lt;/div&gt;&lt;div&gt;API (Encoder)&lt;br&gt;&lt;/div&gt;" style="ellipse;whiteSpace=wrap;html=1;labelBackgroundColor=none;fontColor=#FFFFFF;fillColor=#333300;strokeColor=#FFFFFF;" parent="1" vertex="1">
          <mxGeometry x="584.25" y="36" width="120" height="51" as="geometry" />
        </mxCell>
        <mxCell id="xJE35Gng4KRntIkckdr7-34" style="edgeStyle=orthogonalEdgeStyle;rounded=0;orthogonalLoop=1;jettySize=auto;html=1;exitX=1;exitY=0.5;exitDx=0;exitDy=0;entryX=0;entryY=0.5;entryDx=0;entryDy=0;labelBackgroundColor=none;fontColor=#FFFFFF;strokeColor=#23445D;" parent="1" source="xJE35Gng4KRntIkckdr7-8" target="xJE35Gng4KRntIkckdr7-12" edge="1">
          <mxGeometry relative="1" as="geometry" />
        </mxCell>
        <mxCell id="xJE35Gng4KRntIkckdr7-8" value="&lt;div&gt;Continuous ADC&lt;/div&gt;&lt;div&gt;API&lt;br&gt;&lt;/div&gt;" style="ellipse;whiteSpace=wrap;html=1;labelBackgroundColor=none;fontColor=#FFFFFF;fillColor=#003300;strokeColor=#FFFFFF;" parent="1" vertex="1">
          <mxGeometry x="197.5" y="377" width="120" height="54" as="geometry" />
        </mxCell>
        <mxCell id="88S4lRFHgeVLfDE4VrQQ-10" value="QUEUE" style="edgeStyle=orthogonalEdgeStyle;rounded=0;orthogonalLoop=1;jettySize=auto;html=1;exitX=0;exitY=0.5;exitDx=0;exitDy=0;entryX=0.75;entryY=1;entryDx=0;entryDy=0;strokeColor=#23445D;labelBackgroundColor=none;fontColor=#FFFFFF;" edge="1" parent="1" source="xJE35Gng4KRntIkckdr7-10" target="xJE35Gng4KRntIkckdr7-6">
          <mxGeometry relative="1" as="geometry" />
        </mxCell>
        <mxCell id="xJE35Gng4KRntIkckdr7-10" value="encoder_has_moved" style="shape=parallelogram;perimeter=parallelogramPerimeter;whiteSpace=wrap;html=1;fixedSize=1;labelBackgroundColor=none;fontColor=#FFFFFF;fillColor=#333300;strokeColor=#FFFFFF;" parent="1" vertex="1">
          <mxGeometry x="561" y="109" width="153" height="41" as="geometry" />
        </mxCell>
        <mxCell id="xJE35Gng4KRntIkckdr7-27" value="NOTIFY" style="edgeStyle=orthogonalEdgeStyle;rounded=0;orthogonalLoop=1;jettySize=auto;html=1;exitX=0.5;exitY=0;exitDx=0;exitDy=0;entryX=0.5;entryY=1;entryDx=0;entryDy=0;labelBackgroundColor=none;fontColor=#FFFFFF;strokeColor=#23445D;" parent="1" source="xJE35Gng4KRntIkckdr7-12" target="xJE35Gng4KRntIkckdr7-5" edge="1">
          <mxGeometry relative="1" as="geometry" />
        </mxCell>
        <mxCell id="xJE35Gng4KRntIkckdr7-12" value="conv_done_cb" style="shape=parallelogram;perimeter=parallelogramPerimeter;whiteSpace=wrap;html=1;fixedSize=1;labelBackgroundColor=none;fontColor=#FFFFFF;fillColor=#003300;strokeColor=#FFFFFF;" parent="1" vertex="1">
          <mxGeometry x="351.5" y="383.5" width="165.5" height="41" as="geometry" />
        </mxCell>
        <mxCell id="1VQwGabYHdRYnuA2fcr5-50" value="QUEUE" style="edgeStyle=orthogonalEdgeStyle;rounded=0;orthogonalLoop=1;jettySize=auto;html=1;exitX=0;exitY=0.5;exitDx=0;exitDy=0;labelBackgroundColor=none;fontColor=#FFFFFF;strokeColor=#23445D;" parent="1" source="1VQwGabYHdRYnuA2fcr5-2" target="1VQwGabYHdRYnuA2fcr5-1" edge="1">
          <mxGeometry x="-0.1657" relative="1" as="geometry">
            <mxPoint as="offset" />
          </mxGeometry>
        </mxCell>
        <mxCell id="HniZu6v92CHcr_uCVzVA-15" value="QUEUE" style="edgeStyle=orthogonalEdgeStyle;rounded=0;orthogonalLoop=1;jettySize=auto;html=1;exitX=0.5;exitY=1;exitDx=0;exitDy=0;labelBackgroundColor=none;fontColor=#FFFFFF;strokeColor=#23445D;" parent="1" source="1VQwGabYHdRYnuA2fcr5-2" target="xJE35Gng4KRntIkckdr7-1" edge="1">
          <mxGeometry relative="1" as="geometry" />
        </mxCell>
        <mxCell id="1VQwGabYHdRYnuA2fcr5-2" value="mode_switch_task" style="rounded=0;whiteSpace=wrap;html=1;labelBackgroundColor=none;fontColor=#FFFFFF;fillColor=#332828;strokeColor=#FFFFFF;" parent="1" vertex="1">
          <mxGeometry x="196.5" y="39" width="121" height="53" as="geometry" />
        </mxCell>
        <mxCell id="1VQwGabYHdRYnuA2fcr5-9" style="edgeStyle=orthogonalEdgeStyle;rounded=0;orthogonalLoop=1;jettySize=auto;html=1;entryX=1;entryY=0.5;entryDx=0;entryDy=0;labelBackgroundColor=none;fontColor=#FFFFFF;strokeColor=#23445D;" parent="1" source="1VQwGabYHdRYnuA2fcr5-8" target="xJE35Gng4KRntIkckdr7-2" edge="1">
          <mxGeometry relative="1" as="geometry" />
        </mxCell>
        <mxCell id="1VQwGabYHdRYnuA2fcr5-8" value="&lt;div&gt;GPIO API&lt;/div&gt;&lt;div&gt;(Mode button)&lt;br&gt;&lt;/div&gt;" style="ellipse;whiteSpace=wrap;html=1;labelBackgroundColor=none;fontColor=#FFFFFF;fillColor=#332828;strokeColor=#FFFFFF;" parent="1" vertex="1">
          <mxGeometry x="369" y="-44.5" width="147" height="42" as="geometry" />
        </mxCell>
        <mxCell id="1VQwGabYHdRYnuA2fcr5-47" value="NOTIFY" style="edgeStyle=orthogonalEdgeStyle;rounded=0;orthogonalLoop=1;jettySize=auto;html=1;exitX=1;exitY=0.5;exitDx=0;exitDy=0;entryX=0.25;entryY=0;entryDx=0;entryDy=0;labelBackgroundColor=none;fontColor=#FFFFFF;strokeColor=#23445D;" parent="1" source="1VQwGabYHdRYnuA2fcr5-12" target="1VQwGabYHdRYnuA2fcr5-2" edge="1">
          <mxGeometry relative="1" as="geometry">
            <Array as="points">
              <mxPoint x="74" y="19" />
              <mxPoint x="227" y="19" />
            </Array>
          </mxGeometry>
        </mxCell>
        <mxCell id="1VQwGabYHdRYnuA2fcr5-53" value="QUEUE" style="edgeStyle=orthogonalEdgeStyle;rounded=0;orthogonalLoop=1;jettySize=auto;html=1;exitX=0.25;exitY=1;exitDx=0;exitDy=0;entryX=0.25;entryY=0;entryDx=0;entryDy=0;horizontal=0;labelBackgroundColor=none;fontColor=#FFFFFF;strokeColor=#23445D;" parent="1" source="1VQwGabYHdRYnuA2fcr5-12" target="1VQwGabYHdRYnuA2fcr5-1" edge="1">
          <mxGeometry relative="1" as="geometry" />
        </mxCell>
        <mxCell id="1VQwGabYHdRYnuA2fcr5-12" value="tap_tempo_isr_handler" style="shape=parallelogram;perimeter=parallelogramPerimeter;whiteSpace=wrap;html=1;fixedSize=1;labelBackgroundColor=none;fontColor=#FFFFFF;fillColor=#330000;strokeColor=#FFFFFF;" parent="1" vertex="1">
          <mxGeometry x="-65" y="9" width="151" height="39" as="geometry" />
        </mxCell>
        <mxCell id="1VQwGabYHdRYnuA2fcr5-15" style="edgeStyle=orthogonalEdgeStyle;rounded=0;orthogonalLoop=1;jettySize=auto;html=1;entryX=0.5;entryY=0;entryDx=0;entryDy=0;labelBackgroundColor=none;fontColor=#FFFFFF;strokeColor=#23445D;" parent="1" source="1VQwGabYHdRYnuA2fcr5-14" target="1VQwGabYHdRYnuA2fcr5-12" edge="1">
          <mxGeometry relative="1" as="geometry" />
        </mxCell>
        <mxCell id="1VQwGabYHdRYnuA2fcr5-14" value="&lt;div&gt;GPIO API&lt;/div&gt;&lt;div&gt;(Tap button)&lt;br&gt;&lt;/div&gt;" style="ellipse;whiteSpace=wrap;html=1;labelBackgroundColor=none;fontColor=#FFFFFF;fillColor=#330000;strokeColor=#FFFFFF;" parent="1" vertex="1">
          <mxGeometry x="-59.75" y="-56" width="140.5" height="42" as="geometry" />
        </mxCell>
        <mxCell id="1VQwGabYHdRYnuA2fcr5-17" value="GPIO API (Leds)" style="ellipse;whiteSpace=wrap;html=1;labelBackgroundColor=none;fontColor=#FFFFFF;fillColor=#000033;strokeColor=#FFFFFF;" parent="1" vertex="1">
          <mxGeometry x="108" y="227" width="140.5" height="38" as="geometry" />
        </mxCell>
        <mxCell id="1VQwGabYHdRYnuA2fcr5-19" value="GPIO API (Leds)" style="ellipse;whiteSpace=wrap;html=1;labelBackgroundColor=none;fontColor=#FFFFFF;fillColor=#003300;strokeColor=#FFFFFF;" parent="1" vertex="1">
          <mxGeometry x="33" y="347" width="136" height="38" as="geometry" />
        </mxCell>
        <mxCell id="1VQwGabYHdRYnuA2fcr5-32" style="edgeStyle=orthogonalEdgeStyle;rounded=0;orthogonalLoop=1;jettySize=auto;html=1;exitX=0;exitY=0.5;exitDx=0;exitDy=0;entryX=1;entryY=0.5;entryDx=0;entryDy=0;labelBackgroundColor=none;fontColor=#FFFFFF;strokeColor=#23445D;" parent="1" source="1VQwGabYHdRYnuA2fcr5-20" target="1VQwGabYHdRYnuA2fcr5-21" edge="1">
          <mxGeometry relative="1" as="geometry" />
        </mxCell>
        <mxCell id="1VQwGabYHdRYnuA2fcr5-20" value="Gptimer API" style="ellipse;whiteSpace=wrap;html=1;labelBackgroundColor=none;fontColor=#FFFFFF;fillColor=#003300;strokeColor=#FFFFFF;" parent="1" vertex="1">
          <mxGeometry x="172" y="279" width="99" height="51" as="geometry" />
        </mxCell>
        <mxCell id="1VQwGabYHdRYnuA2fcr5-33" style="edgeStyle=orthogonalEdgeStyle;rounded=0;orthogonalLoop=1;jettySize=auto;html=1;exitX=0.5;exitY=1;exitDx=0;exitDy=0;entryX=0.5;entryY=0;entryDx=0;entryDy=0;labelBackgroundColor=none;fontColor=#FFFFFF;strokeColor=#23445D;" parent="1" source="1VQwGabYHdRYnuA2fcr5-21" target="1VQwGabYHdRYnuA2fcr5-19" edge="1">
          <mxGeometry relative="1" as="geometry" />
        </mxCell>
        <mxCell id="1VQwGabYHdRYnuA2fcr5-21" value="turn_off_led_cb" style="shape=parallelogram;perimeter=parallelogramPerimeter;whiteSpace=wrap;html=1;fixedSize=1;labelBackgroundColor=none;fontColor=#FFFFFF;fillColor=#003300;strokeColor=#FFFFFF;" parent="1" vertex="1">
          <mxGeometry x="23" y="284" width="134" height="41" as="geometry" />
        </mxCell>
        <mxCell id="1VQwGabYHdRYnuA2fcr5-24" value="i2c API" style="ellipse;whiteSpace=wrap;html=1;labelBackgroundColor=none;fontColor=#FFFFFF;fillColor=#333300;strokeColor=#FFFFFF;" parent="1" vertex="1">
          <mxGeometry x="651" y="-18" width="120" height="42" as="geometry" />
        </mxCell>
        <mxCell id="1VQwGabYHdRYnuA2fcr5-37" value="NOITIFY" style="edgeStyle=orthogonalEdgeStyle;rounded=0;orthogonalLoop=1;jettySize=auto;html=1;exitX=0.75;exitY=1;exitDx=0;exitDy=0;entryX=0.5;entryY=1;entryDx=0;entryDy=0;labelBackgroundColor=none;fontColor=#FFFFFF;strokeColor=#23445D;" parent="1" source="1VQwGabYHdRYnuA2fcr5-1" target="xJE35Gng4KRntIkckdr7-4" edge="1">
          <mxGeometry relative="1" as="geometry">
            <Array as="points">
              <mxPoint x="11" y="268" />
              <mxPoint x="11" y="453" />
              <mxPoint x="552" y="453" />
            </Array>
          </mxGeometry>
        </mxCell>
        <mxCell id="1VQwGabYHdRYnuA2fcr5-38" value="NOTIFY" style="edgeStyle=orthogonalEdgeStyle;rounded=0;orthogonalLoop=1;jettySize=auto;html=1;exitX=0.5;exitY=1;exitDx=0;exitDy=0;entryX=0.5;entryY=1;entryDx=0;entryDy=0;labelBackgroundColor=none;fontColor=#FFFFFF;strokeColor=#23445D;" parent="1" source="1VQwGabYHdRYnuA2fcr5-1" target="xJE35Gng4KRntIkckdr7-3" edge="1">
          <mxGeometry relative="1" as="geometry">
            <Array as="points">
              <mxPoint x="2" y="478" />
              <mxPoint x="724" y="478" />
            </Array>
          </mxGeometry>
        </mxCell>
        <mxCell id="1VQwGabYHdRYnuA2fcr5-46" value="&lt;div&gt;QUEUE&lt;/div&gt;" style="edgeStyle=orthogonalEdgeStyle;rounded=0;orthogonalLoop=1;jettySize=auto;html=1;exitX=0;exitY=0.5;exitDx=0;exitDy=0;entryX=0.5;entryY=0;entryDx=0;entryDy=0;labelBackgroundColor=none;fontColor=#FFFFFF;strokeColor=#23445D;" parent="1" source="1VQwGabYHdRYnuA2fcr5-1" target="xJE35Gng4KRntIkckdr7-6" edge="1">
          <mxGeometry relative="1" as="geometry">
            <Array as="points">
              <mxPoint x="-83" y="242" />
              <mxPoint x="-83" y="-72" />
              <mxPoint x="543" y="-72" />
              <mxPoint x="543" y="18" />
              <mxPoint x="452" y="18" />
            </Array>
          </mxGeometry>
        </mxCell>
        <mxCell id="HniZu6v92CHcr_uCVzVA-10" value="NOTIFY" style="edgeStyle=orthogonalEdgeStyle;rounded=0;orthogonalLoop=1;jettySize=auto;html=1;exitX=0.75;exitY=0;exitDx=0;exitDy=0;entryX=0;entryY=0.75;entryDx=0;entryDy=0;labelBackgroundColor=none;fontColor=#FFFFFF;strokeColor=#23445D;" parent="1" source="1VQwGabYHdRYnuA2fcr5-1" target="1VQwGabYHdRYnuA2fcr5-2" edge="1">
          <mxGeometry x="0.3914" relative="1" as="geometry">
            <mxPoint as="offset" />
          </mxGeometry>
        </mxCell>
        <mxCell id="HniZu6v92CHcr_uCVzVA-14" value="QUEUE" style="edgeStyle=orthogonalEdgeStyle;rounded=0;orthogonalLoop=1;jettySize=auto;html=1;exitX=1;exitY=0.5;exitDx=0;exitDy=0;entryX=0;entryY=0.5;entryDx=0;entryDy=0;labelBackgroundColor=none;fontColor=#FFFFFF;strokeColor=#23445D;" parent="1" source="1VQwGabYHdRYnuA2fcr5-1" target="xJE35Gng4KRntIkckdr7-1" edge="1">
          <mxGeometry relative="1" as="geometry">
            <Array as="points">
              <mxPoint x="90" y="241" />
              <mxPoint x="90" y="181" />
            </Array>
          </mxGeometry>
        </mxCell>
        <mxCell id="1VQwGabYHdRYnuA2fcr5-1" value="tap_task" style="rounded=0;whiteSpace=wrap;html=1;labelBackgroundColor=none;fontColor=#FFFFFF;fillColor=#330000;strokeColor=#FFFFFF;" parent="1" vertex="1">
          <mxGeometry x="-58" y="215" width="120" height="53" as="geometry" />
        </mxCell>
        <mxCell id="1VQwGabYHdRYnuA2fcr5-27" value="UART API" style="ellipse;whiteSpace=wrap;html=1;labelBackgroundColor=none;fontColor=#FFFFFF;fillColor=#000033;strokeColor=#FFFFFF;" parent="1" vertex="1">
          <mxGeometry x="73" y="95" width="120" height="51" as="geometry" />
        </mxCell>
        <mxCell id="moEbLZlEv98gQyUkoGMg-1" value="NVS API" style="ellipse;whiteSpace=wrap;html=1;labelBackgroundColor=none;fontColor=#FFFFFF;fillColor=#333300;strokeColor=#FFFFFF;" parent="1" vertex="1">
          <mxGeometry x="649" y="-75" width="120" height="42" as="geometry" />
        </mxCell>
        <mxCell id="88S4lRFHgeVLfDE4VrQQ-6" style="edgeStyle=orthogonalEdgeStyle;rounded=0;orthogonalLoop=1;jettySize=auto;html=1;exitX=0.5;exitY=1;exitDx=0;exitDy=0;entryX=0.5;entryY=0;entryDx=0;entryDy=0;strokeColor=#23445D;labelBackgroundColor=none;fontColor=#FFFFFF;" edge="1" parent="1" source="HniZu6v92CHcr_uCVzVA-5" target="88S4lRFHgeVLfDE4VrQQ-5">
          <mxGeometry relative="1" as="geometry" />
        </mxCell>
        <mxCell id="HniZu6v92CHcr_uCVzVA-5" value="&lt;div&gt;GPIO API&amp;nbsp;&lt;/div&gt;&lt;div&gt;(Encoder button)&lt;/div&gt;" style="ellipse;whiteSpace=wrap;html=1;labelBackgroundColor=none;fontColor=#FFFFFF;fillColor=#333300;strokeColor=#FFFFFF;" parent="1" vertex="1">
          <mxGeometry x="722" y="32" width="120" height="51" as="geometry" />
        </mxCell>
        <mxCell id="bAQgO3kXSDWkhejjoUh2-1" value="" style="rounded=0;whiteSpace=wrap;html=1;labelBackgroundColor=none;fontColor=#FFFFFF;fillColor=#330000;strokeColor=#FFFFFF;" parent="1" vertex="1">
          <mxGeometry x="176.25" y="518" width="36" height="27" as="geometry" />
        </mxCell>
        <mxCell id="bAQgO3kXSDWkhejjoUh2-2" value="" style="rounded=0;whiteSpace=wrap;html=1;labelBackgroundColor=none;fontColor=#FFFFFF;fillColor=#003300;strokeColor=#FFFFFF;" parent="1" vertex="1">
          <mxGeometry x="248.25" y="518" width="36" height="27" as="geometry" />
        </mxCell>
        <mxCell id="bAQgO3kXSDWkhejjoUh2-3" value="" style="rounded=0;whiteSpace=wrap;html=1;labelBackgroundColor=none;fontColor=#FFFFFF;fillColor=#000033;strokeColor=#FFFFFF;" parent="1" vertex="1">
          <mxGeometry x="321.25" y="518" width="35" height="27" as="geometry" />
        </mxCell>
        <mxCell id="bAQgO3kXSDWkhejjoUh2-4" value="" style="rounded=0;whiteSpace=wrap;html=1;labelBackgroundColor=none;fontColor=#FFFFFF;fillColor=#332828;strokeColor=#FFFFFF;" parent="1" vertex="1">
          <mxGeometry x="392.25" y="518" width="36" height="27" as="geometry" />
        </mxCell>
        <mxCell id="bAQgO3kXSDWkhejjoUh2-5" value="" style="rounded=0;whiteSpace=wrap;html=1;labelBackgroundColor=none;fontColor=#FFFFFF;fillColor=#333300;strokeColor=#FFFFFF;" parent="1" vertex="1">
          <mxGeometry x="466.25" y="518" width="34" height="27" as="geometry" />
        </mxCell>
        <mxCell id="bAQgO3kXSDWkhejjoUh2-7" value="" style="rounded=0;whiteSpace=wrap;html=1;labelBackgroundColor=none;fontColor=#FFFFFF;fillColor=#182E3E;strokeColor=#FFFFFF;" parent="1" vertex="1">
          <mxGeometry x="608.25" y="518" width="34" height="27" as="geometry" />
        </mxCell>
        <mxCell id="bAQgO3kXSDWkhejjoUh2-10" value="Tap" style="text;html=1;strokeColor=none;fillColor=none;align=center;verticalAlign=middle;whiteSpace=wrap;rounded=0;fontColor=#FFFFFF;" parent="1" vertex="1">
          <mxGeometry x="164.25" y="545" width="60" height="30" as="geometry" />
        </mxCell>
        <mxCell id="bAQgO3kXSDWkhejjoUh2-11" value="&lt;div&gt;Onset&lt;/div&gt;&lt;div&gt;Adc&lt;br&gt;&lt;/div&gt;" style="text;html=1;strokeColor=none;fillColor=none;align=center;verticalAlign=middle;whiteSpace=wrap;rounded=0;fontColor=#FFFFFF;" parent="1" vertex="1">
          <mxGeometry x="236.25" y="554" width="60" height="30" as="geometry" />
        </mxCell>
        <mxCell id="bAQgO3kXSDWkhejjoUh2-12" value="Clock" style="text;html=1;strokeColor=none;fillColor=none;align=center;verticalAlign=middle;whiteSpace=wrap;rounded=0;fontColor=#FFFFFF;" parent="1" vertex="1">
          <mxGeometry x="308.25" y="545" width="60" height="30" as="geometry" />
        </mxCell>
        <mxCell id="bAQgO3kXSDWkhejjoUh2-13" value="&lt;div&gt;Mode&lt;/div&gt;&lt;div&gt;Switch&lt;br&gt;&lt;/div&gt;" style="text;html=1;strokeColor=none;fillColor=none;align=center;verticalAlign=middle;whiteSpace=wrap;rounded=0;fontColor=#FFFFFF;" parent="1" vertex="1">
          <mxGeometry x="380.25" y="554" width="60" height="30" as="geometry" />
        </mxCell>
        <mxCell id="bAQgO3kXSDWkhejjoUh2-14" value="Hid" style="text;html=1;strokeColor=none;fillColor=none;align=center;verticalAlign=middle;whiteSpace=wrap;rounded=0;fontColor=#FFFFFF;" parent="1" vertex="1">
          <mxGeometry x="453.25" y="545" width="60" height="30" as="geometry" />
        </mxCell>
        <mxCell id="bAQgO3kXSDWkhejjoUh2-15" value="Sync" style="text;html=1;strokeColor=none;fillColor=none;align=center;verticalAlign=middle;whiteSpace=wrap;rounded=0;fontColor=#FFFFFF;" parent="1" vertex="1">
          <mxGeometry x="524.25" y="545" width="60" height="30" as="geometry" />
        </mxCell>
        <mxCell id="bAQgO3kXSDWkhejjoUh2-16" value="Tempo" style="text;html=1;strokeColor=none;fillColor=none;align=center;verticalAlign=middle;whiteSpace=wrap;rounded=0;fontColor=#FFFFFF;" parent="1" vertex="1">
          <mxGeometry x="595.25" y="545" width="60" height="30" as="geometry" />
        </mxCell>
        <mxCell id="88S4lRFHgeVLfDE4VrQQ-3" value="" style="rounded=0;whiteSpace=wrap;html=1;labelBackgroundColor=none;fontColor=#FFFFFF;fillColor=#663300;strokeColor=#FFFFFF;" vertex="1" parent="1">
          <mxGeometry x="534" y="518" width="34" height="27" as="geometry" />
        </mxCell>
        <mxCell id="88S4lRFHgeVLfDE4VrQQ-4" value="MODULI:" style="text;html=1;strokeColor=none;fillColor=none;align=center;verticalAlign=middle;whiteSpace=wrap;rounded=0;fontColor=#FFFFFF;" vertex="1" parent="1">
          <mxGeometry x="75" y="534.5" width="60" height="30" as="geometry" />
        </mxCell>
        <mxCell id="88S4lRFHgeVLfDE4VrQQ-8" value="QUEUE" style="edgeStyle=orthogonalEdgeStyle;rounded=0;orthogonalLoop=1;jettySize=auto;html=1;exitX=0.5;exitY=1;exitDx=0;exitDy=0;entryX=0.5;entryY=1;entryDx=0;entryDy=0;strokeColor=#23445D;labelBackgroundColor=none;fontColor=#FFFFFF;" edge="1" parent="1" source="88S4lRFHgeVLfDE4VrQQ-5" target="xJE35Gng4KRntIkckdr7-6">
          <mxGeometry x="0.3712" y="-2" relative="1" as="geometry">
            <Array as="points">
              <mxPoint x="787" y="164" />
              <mxPoint x="448" y="164" />
            </Array>
            <mxPoint as="offset" />
          </mxGeometry>
        </mxCell>
        <mxCell id="88S4lRFHgeVLfDE4VrQQ-5" value="encoder_has_clicked" style="shape=parallelogram;perimeter=parallelogramPerimeter;whiteSpace=wrap;html=1;fixedSize=1;labelBackgroundColor=none;fontColor=#FFFFFF;fillColor=#333300;strokeColor=#FFFFFF;" vertex="1" parent="1">
          <mxGeometry x="717" y="109" width="140" height="41" as="geometry" />
        </mxCell>
      </root>
    </mxGraphModel>
  </diagram>
</mxfile>
